#!OML:ASF F:\VICON\USERDATA\INSTALL\rory3\rory3.ASF
:FULLY-SPECIFIED
:DEGREES
256
root 0.50279 22.9809 -1.86644 -2.71308 -0.498244 4.50248
lowerback 5.97853 0.494169 -1.52317
upperback -1.4131 0.505463 -0.758554
thorax -4.82584 0.282896 0.0185675
lowerneck -16.2821 -2.11044 -5.53397
upperneck 11.9162 -2.59328 6.51389
head 6.45015 -0.960628 2.73514
rclavicle 5.46658e-016 3.97569e-015
rhumerus 3.93569 4.36202 -58.83
rradius 56.1752
rwrist 19.5645
rhand -25.7835 1.86115
rfingers 7.12502
rthumb 0.75489 -28.1173
lclavicle 5.46658e-016 3.97569e-015
lhumerus -3.63782 10.8843 68.3981
lradius 66.2132
lwrist 0.567377
lhand -25.148 21.123
lfingers 7.12502
lthumb 1.36864 51.0984
rfemur -3.29596 13.8413 16.3642
rtibia 43.6638
rfoot 30.2295 -12.0596
rtoes 2.7074
lfemur 0.736101 1.23657 -21.4153
ltibia 34.208
lfoot 32.6607 0.774004
ltoes -0.458373
257
root 0.48809 23.069 -1.7469 -2.02022 -0.689197 2.87225
lowerback 6.24519 0.455906 -0.0200715
upperback -1.6548 0.593573 -0.266673
thorax -5.2194 0.2897 -0.328679
lowerneck -16.1778 -2.05815 -5.46347
upperneck 11.9429 -2.52474 6.38707
head 6.43401 -0.936593 2.68983
rclavicle 9.33046e-015 -3.97569e-016
rhumerus 3.06681 4.4728 -59.1276
rradius 54.868
rwrist 19.9323
rhand -25.6411 2.01396
rfingers 7.12502
rthumb 0.892342 -27.9639
lclavicle 9.33046e-015 -3.97569e-016
lhumerus -4.82167 11.2719 68.7623
lradius 64.2434
lwrist 0.531924
lhand -25.196 21.5161
lfingers 7.12502
lthumb 1.32226 51.4918
rfemur -5.15811 14.1123 17.9642
rtibia 42.9063
rfoot 29.6146 -11.7315
rtoes 2.01689
lfemur -1.28828 1.37839 -19.4942
ltibia 33.8103
lfoot 32.7776 0.720933
ltoes -0.556025
258
root 0.487142 23.1372 -1.57079 -1.95231 -0.875472 3.14582
lowerback 6.29858 0.52043 -0.297744
upperback -1.52989 0.653305 -0.340395
thorax -5.12119 0.326824 -0.25526
lowerneck -16.0773 -2.04115 -5.39025
upperneck 11.9262 -2.50975 6.30647
head 6.40877 -0.934462 2.6532
rclavicle 1.61513e-014 3.97569e-016
rhumerus 2.23476 4.46322 -59.4941
rradius 53.5181
rwrist 20.3724
rhand -24.9289 2.4011
rfingers 7.12502
rthumb 1.58019 -27.5728
lclavicle 1.61513e-014 3.97569e-016
lhumerus -5.89809 11.4946 69.0679
lradius 62.2274
lwrist 0.746101
lhand -25.4219 22.2692
lfingers 7.12502
lthumb 1.10412 52.2461
rfemur -6.00943 14.122 17.3845
rtibia 42.0879
rfoot 28.3664 -11.0017
rtoes 1.19619
lfemur -2.33515 1.61335 -19.8188
ltibia 33.4467
lfoot 32.1082 0.702412
ltoes 0.411823
259
root 0.483019 23.2019 -1.39358 -1.89132 -1.00776 3.25875
lowerback 6.43598 0.56872 -0.466536
upperback -1.43987 0.703454 -0.336689
thorax -5.10725 0.356764 -0.162832
lowerneck -16.0645 -2.05102 -5.35037
upperneck 12.0185 -2.51046 6.13859
head 6.43322 -0.946857 2.59274
rclavicle -5.70264e-015 5.56597e-015
rhumerus 1.32347 4.51156 -59.7899
rradius 52.2083
rwrist 20.7242
rhand -24.7684 2.50026
rfingers 7.12502
rthumb 1.73522 -27.4724
lclavicle -5.70264e-015 5.56597e-015
lhumerus -7.03016 11.5607 69.3818
lradius 60.1735
lwrist 1.33175
lhand -25.5434 22.4422
lfingers 7.12502
lthumb 0.986728 52.4197
rfemur -6.87919 14.1879 17.0567
rtibia 41.1648
rfoot 27.3738 -10.3095
rtoes 0.0879081
lfemur -3.37681 1.78876 -19.9678
ltibia 33.0819
lfoot 30.9522 0.290341
ltoes -0.719031
260
root 0.480442 23.2581 -1.2122 -1.86955 -0.966987 3.26686
lowerback 6.615 0.548793 -0.492401
upperback -1.32946 0.674931 -0.314896
thorax -5.09405 0.343613 -0.123749
lowerneck -16.0849 -2.02169 -5.34311
upperneck 12.0795 -2.46262 6.06694
head 6.45212 -0.928883 2.57365
rclavicle -8.1129e-015 -7.95139e-016
rhumerus 0.453405 4.60762 -60.097
rradius 50.8737
rwrist 20.9636
rhand -24.9322 2.30062
rfingers 7.12502
rthumb 1.57704 -27.6733
lclavicle -8.1129e-015 -7.95139e-016
lhumerus -8.12507 11.4854 69.6445
lradius 58.1124
lwrist 2.16901
lhand -25.3072 22.5454
lfingers 7.12502
lthumb 1.21484 52.5217
rfemur -7.59203 14.1624 16.8887
rtibia 40.1425
rfoot 26.3079 -9.77584
rtoes -0.589218
lfemur -4.31209 1.63563 -20.0594
ltibia 32.3939
lfoot 30.0092 0.201193
ltoes -2.39573
261
root 0.481413 23.3009 -1.03155 -1.91242 -0.91826 3.3035
lowerback 6.82879 0.520116 -0.49189
upperback -1.15472 0.635133 -0.330317
thorax -5.03251 0.323404 -0.136634
lowerneck -16.015 -1.96525 -5.25093
upperneck 11.9252 -2.39431 6.00655
head 6.38499 -0.898337 2.54503
rclavicle -1.71824e-014 7.95139e-015
rhumerus -0.313954 4.6848 -60.4542
rradius 49.4839
rwrist 21.1012
rhand -24.9662 2.31068
rfingers 7.12502
rthumb 1.54417 -27.6635
lclavicle -1.71824e-014 7.95139e-015
lhumerus -9.06035 11.2479 69.8657
lradius 56.0267
lwrist 3.10768
lhand -24.7505 23.0088
lfingers 7.12502
lthumb 1.75253 52.9814
rfemur -8.16693 14.1047 16.686
rtibia 39.0399
rfoot 25.0819 -9.28749
rtoes -1.44835
lfemur -5.25726 1.28953 -20.2085
ltibia 31.7634
lfoot 29.4298 0.270661
ltoes -0.930375
